<?xml version="1.0" standalone="no"?>
<!DOCTYPE svg PUBLIC "-//W3C//DTD SVG 20010904//EN"
 "http://www.w3.org/TR/2001/REC-SVG-20010904/DTD/svg10.dtd">
<svg version="1.0" xmlns="http://www.w3.org/2000/svg"
 width="640.000000pt" height="640.000000pt" viewBox="0 0 640.000000 640.000000"
 preserveAspectRatio="xMidYMid meet">
<metadata>
Created by potrace 1.14, written by Peter Selinger 2001-2017
</metadata>
<g transform="translate(0.000000,640.000000) scale(0.100000,-0.100000)"
fill="#000000" stroke="none">
<path d="M4490 6370 c-6 -12 -19 -29 -28 -39 -59 -63 -109 -141 -182 -287 -36
-71 -67 -131 -70 -134 -3 -3 -30 -54 -60 -115 -30 -60 -67 -132 -82 -158 -16
-26 -28 -54 -28 -62 0 -7 -3 -15 -7 -17 -5 -1 -37 -60 -73 -130 -36 -70 -77
-151 -92 -180 -15 -29 -28 -58 -28 -65 0 -6 -4 -13 -8 -15 -5 -1 -37 -59 -72
-128 -34 -69 -85 -168 -113 -220 -27 -52 -83 -160 -125 -240 -41 -80 -111
-215 -155 -300 -410 -791 -410 -791 -392 -809 25 -26 116 -122 168 -179 l49
-52 -6 -118 c-4 -64 -8 -137 -11 -162 -2 -25 -6 -88 -10 -140 -8 -125 -14
-220 -21 -300 -3 -36 -7 -103 -10 -150 -2 -47 -6 -112 -9 -145 -2 -33 -7 -105
-11 -160 -3 -55 -7 -109 -7 -119 -2 -17 -11 -19 -82 -21 -44 -1 -105 -8 -135
-15 -30 -7 -55 -12 -55 -11 0 1 -38 -17 -85 -39 -102 -50 -195 -122 -256 -199
-25 -31 -51 -63 -58 -71 -36 -45 -102 -205 -121 -295 -13 -59 -12 -228 2 -289
20 -92 85 -216 146 -279 91 -96 219 -161 340 -173 68 -6 162 -99 212 -207 29
-65 50 -133 75 -252 4 -21 18 -47 30 -57 39 -32 129 -48 159 -29 10 7 12 20 6
57 -5 27 -9 51 -10 54 -2 10 -25 115 -30 145 -28 146 -24 288 9 368 9 20 55
75 101 121 47 46 85 88 85 94 0 6 3 12 8 14 17 7 98 151 109 193 2 5 12 44 24
85 22 79 28 225 14 310 -17 101 -86 238 -156 309 -9 9 -15 29 -14 46 1 17 5
89 9 160 4 72 9 157 11 190 2 33 7 105 10 160 3 55 8 129 10 165 2 36 7 108
10 160 3 52 8 129 10 170 12 183 16 241 20 330 3 52 8 131 11 175 4 44 6 89 5
100 -1 23 97 324 112 343 5 6 7 12 4 12 -3 0 5 33 19 73 14 39 27 79 29 87 5
19 93 280 102 300 3 8 7 20 9 25 3 16 122 369 158 475 49 140 77 223 81 240 2
8 4 15 4 15 4 0 469 1400 466 1403 -2 2 -9 -6 -15 -18z m-1136 -2752 c24 -26
27 -37 23 -71 -14 -107 -151 -123 -186 -21 -18 51 -1 91 48 116 44 22 78 15
115 -24z m-205 -1898 c110 -29 210 -135 247 -261 24 -81 23 -228 -3 -289 -3
-8 -7 -21 -9 -28 -5 -25 -66 -144 -87 -170 -86 -106 -194 -183 -304 -215 -50
-15 -168 -17 -220 -4 -114 29 -215 127 -258 253 -23 66 -27 189 -9 266 16 69
72 198 85 198 5 0 9 7 9 15 0 23 130 148 190 182 54 30 132 58 180 66 38 5
138 -2 179 -13z"/>
<path d="M6060 4719 c-30 -11 -62 -22 -70 -24 -14 -3 -95 -29 -410 -132 -58
-19 -109 -35 -115 -37 -14 -3 -374 -120 -520 -168 -66 -22 -124 -41 -130 -42
-5 -2 -17 -6 -25 -9 -8 -3 -89 -29 -180 -57 -91 -29 -172 -55 -180 -58 -8 -3
-18 -6 -22 -7 -5 -2 -10 -4 -13 -5 -3 -1 -9 -4 -15 -5 -5 -1 -12 -4 -15 -5 -3
-1 -8 -3 -12 -4 -22 -5 -490 -158 -502 -164 -12 -7 -136 -352 -157 -437 -1 -5
-9 -29 -18 -52 -8 -24 -13 -43 -11 -43 4 0 371 180 855 418 162 80 301 147
308 148 8 1 22 10 31 18 10 9 21 16 26 16 4 0 112 51 239 114 127 63 353 173
501 246 393 191 405 198 465 257 59 58 54 63 -30 32z"/>
<path d="M865 3963 c-437 -93 -720 -536 -581 -907 72 -190 212 -304 446 -363
38 -10 201 -8 253 2 l58 12 37 -38 c110 -110 303 -3 261 144 -7 25 -4 33 23
55 112 94 197 220 242 359 20 61 23 84 25 186 l1 77 173 -5 c94 -3 235 -8 312
-10 77 -2 219 -7 315 -10 96 -4 223 -8 281 -9 l105 -3 45 86 c24 47 58 112 76
144 17 31 29 57 26 57 -3 0 -1 6 4 13 6 6 13 20 16 30 6 16 -3 17 -131 12 -75
-3 -193 -7 -262 -10 -69 -2 -195 -7 -280 -10 -85 -4 -204 -8 -265 -10 -111 -4
-449 -16 -495 -18 -18 -1 -41 15 -80 54 -65 66 -149 117 -246 149 -87 30 -254
36 -359 13z m311 -198 c85 -37 110 -52 155 -95 71 -69 100 -142 111 -275 2
-20 -13 -90 -28 -134 -36 -107 -109 -199 -229 -289 -5 -4 -39 -21 -75 -38
-396 -189 -774 89 -644 474 38 112 153 242 266 302 108 58 198 80 309 76 61
-3 111 -10 135 -21z"/>
</g>
</svg>
