<svg width="80" height="80" viewBox="0 0 80 80" fill="none" xmlns="http://www.w3.org/2000/svg">
<path d="M77.4958 41.6206C77.5175 41.0989 77.5761 40.5845 77.5761 40.0555C77.5761 39.5837 77.5225 39.129 77.5031 38.66C77.6905 37.7567 78.1439 36.8281 78.5779 35.9747C79.0092 35.0205 79.4581 34.1648 79.5555 33.6809C79.9505 32.0781 79.0167 31.1115 77.993 30.4898C77.2617 30.0339 76.4889 29.7392 76.0088 29.4064C75.7355 28.4887 75.409 27.5892 75.0677 26.7007C74.9727 25.7427 75.0629 24.6945 75.1458 23.7353C75.2702 22.6773 75.4359 21.7108 75.3823 21.2148C74.9241 18.4016 71.9572 18.688 70.5654 18.3383C70.0097 17.5632 69.4415 16.7964 68.8321 16.0652C67.9155 14.3381 67.8353 11.6372 67.3355 10.8302C66.0801 8.23407 63.2913 9.5626 61.8824 9.65529C61.1023 9.09582 60.3002 8.57664 59.4813 8.07938C58.1089 6.6375 57.0656 4.28251 56.3829 3.57441C55.2519 2.37865 53.9085 2.68594 52.8508 3.14416C52.0754 3.48172 51.4076 3.97543 50.8567 4.22281C49.8937 3.93639 48.9188 3.67691 47.9216 3.46711C46.1933 2.59075 44.5163 0.655153 43.6594 0.28962C42.1941 -0.379655 41.0339 0.216555 40.1832 1.00273C39.564 1.62441 39.0922 2.3154 38.6524 2.72498C37.6639 2.76506 36.6779 2.82247 35.7101 2.93937C33.7698 2.71767 31.5039 1.34509 30.5653 1.32192C28.9552 1.12569 28.0362 2.03128 27.5169 3.14416C27.1244 3.92053 26.8977 4.72508 26.6088 5.23945C25.7044 5.59413 24.8281 5.98305 23.9601 6.40473C22.0051 6.76442 19.4664 6.34983 18.5059 6.5375C16.8836 6.82642 16.4083 8.12197 16.2194 9.26032C16.0743 10.0964 16.1267 10.9398 16.0292 11.5347C15.271 12.1783 14.5311 12.8376 13.8255 13.5386C12.1632 14.5318 9.54624 14.8366 8.80265 15.3888C6.34433 16.8843 7.86408 19.5268 8.08598 20.9344C7.59227 21.7632 7.1305 22.6078 6.6988 23.4733C6.10175 24.195 5.22518 24.797 4.45737 25.3613C3.61754 25.9951 2.81425 26.5339 2.49255 26.9141C1.36631 28.1317 1.7855 29.4444 2.35728 30.4656C2.79233 31.214 3.30086 31.8332 3.57621 32.3549C3.37622 33.3129 3.23615 34.2892 3.10943 35.2704C2.3197 37.0853 0.665723 38.9647 0.243826 39.8605C-0.67032 42.5347 2.01596 43.7023 3.08375 44.6701C3.20922 45.6792 3.34825 46.6885 3.55304 47.671C3.46056 49.5967 2.29528 51.915 2.35728 52.8291C2.2648 55.7031 5.30576 55.8784 6.61112 56.4588C7.0351 57.3264 7.49228 58.175 7.98098 59.0037C8.26364 59.8983 8.29286 60.961 8.34046 61.919C8.41352 62.9672 8.42584 63.9327 8.56842 64.408C8.97195 66.0167 10.3003 66.3799 11.4681 66.4653C12.3346 66.514 13.1354 66.419 13.7276 66.4774C14.4163 67.1649 15.1476 67.8112 15.8862 68.4398C17.0076 70.0584 17.612 72.584 18.1727 73.3687C19.1465 74.6584 20.4496 74.6851 21.5781 74.395C22.4215 74.1413 23.1785 73.7516 23.7551 73.6077C24.6277 74.039 25.5174 74.4415 26.4255 74.8045C27.1897 75.3287 27.8759 76.1038 28.4853 76.8669C29.1765 77.6785 29.7906 78.3929 30.1977 78.6828C30.8536 79.1582 31.5006 79.3068 32.0968 79.2582C32.7013 79.163 33.2547 78.873 33.7495 78.5294C34.4576 78.0417 35.0377 77.4468 35.5315 77.1349C36.4955 77.2568 37.4706 77.3203 38.4543 77.3689C40.3337 77.9954 42.3509 79.5458 43.2795 79.8358C44.8445 80.389 45.8758 79.4385 46.5874 78.5342C47.1018 77.8541 47.46 77.1299 47.8258 76.6644C48.8057 76.4598 49.7637 76.1988 50.7143 75.921C52.6744 75.8817 55.0828 76.7349 56.0383 76.7009C57.6471 76.5863 58.3809 75.5062 58.7565 74.4071C59.0074 73.561 59.0905 72.7153 59.2878 72.1475C60.0946 71.6648 60.8942 71.1624 61.6647 70.6213C62.5396 70.2361 63.5928 70.0681 64.5971 69.9754C65.6528 69.8338 66.5911 69.7144 67.0519 69.5341C68.6023 68.9783 68.9169 67.6914 68.868 66.4795C68.8484 65.6119 68.668 64.7976 68.6852 64.2101C69.2945 63.4912 69.86 62.7403 70.4185 61.975C70.7548 61.6921 71.118 61.4216 71.5397 61.1948C71.9956 60.9024 72.4854 60.6437 72.9632 60.4076C73.9187 59.9346 74.8205 59.5446 75.2084 59.2327C77.3095 57.3143 75.4618 54.9912 74.994 53.631C75.3472 52.7264 75.6885 51.8123 75.9737 50.8764C76.9269 49.1821 79.1182 47.6611 79.5084 46.8102C80.9594 44.3459 78.3755 42.7491 77.4958 41.6206ZM40.1748 73.3297C21.8264 73.3297 6.89941 58.404 6.89941 40.0555C6.89941 21.706 21.8264 6.77883 40.1748 6.77883C58.5233 6.77883 73.449 21.706 73.449 40.0555C73.449 58.404 58.5208 73.3297 40.1748 73.3297Z" fill="#F6F3E3"/>
<path d="M50.5859 28.1938C49.6816 23.611 41.8225 20.8955 39.998 24.3325C38.1758 20.8953 30.3154 23.6108 29.4111 28.1938C28.2312 32.9863 21.9775 34.305 18.5086 31.8039C18.5086 37.2205 24.3419 37.2875 27.9509 37.6372C36.5011 37.2618 39.2043 33.3213 39.9978 31.521C40.7961 33.3213 43.497 37.2618 52.046 37.6372C55.6562 37.2875 61.4895 37.2203 61.4895 31.8039C58.0135 34.305 51.766 32.9863 50.5859 28.1938Z" fill="#F6F3E3"/>
<path d="M39.8786 33.469C35.1459 39.9361 25.6401 38.471 25.6401 38.471C25.6401 38.471 25.1905 47.3296 27.9816 49.6428C27.8097 59.9542 38.967 62.2188 41.7631 62.3943C44.5614 62.5674 49.9012 59.2133 48.775 57.1583C51.0615 54.9181 51.8099 52.1586 51.5734 49.4673C54.0158 49.1162 52.6508 38.7025 52.6508 38.7025C52.6508 38.7025 42.9233 39.0597 39.8786 33.469Z" fill="#F6F3E3"/>
<path d="M40.2698 10.6328C23.8753 10.6328 10.5349 23.973 10.5349 40.3677C10.5349 56.7658 23.8751 70.1049 40.2698 70.1049C56.6681 70.1049 70.007 56.766 70.007 40.3677C70.0047 23.9728 56.6681 10.6328 40.2698 10.6328ZM40.2698 68.9664C24.5018 68.9664 11.6735 56.1345 11.6735 40.3675C11.6735 24.6018 24.5018 11.7712 40.2698 11.7712C56.0366 11.7712 68.8687 24.6018 68.8687 40.3675C68.8664 56.1345 56.0368 68.9664 40.2698 68.9664Z" fill="#F6F3E3"/>
</svg>
