<svg width="70" height="40" viewBox="0 0 70 40" fill="none" xmlns="http://www.w3.org/2000/svg">
<path d="M36.6935 11.0646L37.4561 10.3196L22.9987 14.9989L21.8781 18.3346L36.6935 11.0646Z" fill="#F6F3E3"/>
<path d="M17.7222 16.2498L8.50383 16.5904C8.41869 16.4764 8.32728 16.3662 8.22836 16.2635C6.94115 14.925 4.68727 14.7434 2.8704 15.8291C1.86117 16.4313 1.11238 17.3391 0.759271 18.3847C0.394895 19.4628 0.495067 20.5584 1.03975 21.4675C1.17373 21.6941 1.33401 21.9032 1.51557 22.0911C2.50101 23.1141 4.05118 23.4609 5.53874 23.079C5.58131 23.1604 5.63265 23.2405 5.70026 23.3107C6.08092 23.7051 6.7095 23.7176 7.10518 23.3382C7.41446 23.0402 7.48583 22.5907 7.3218 22.22C8.1044 21.6328 8.68665 20.8502 8.98466 19.9674C9.18876 19.3664 9.24135 18.7603 9.15871 18.1831L16.599 18.4198L17.7222 16.2498ZM7.85522 19.5905C7.59352 20.3681 7.02754 21.048 6.26123 21.5051C4.91516 22.3102 3.27985 22.2088 2.37204 21.2684C2.25309 21.1432 2.14791 21.0067 2.06026 20.8615C1.69713 20.2554 1.63578 19.5116 1.88621 18.7691C2.14791 17.9915 2.71388 17.3116 3.47895 16.8533C4.82501 16.0482 6.46157 16.1484 7.36813 17.0912C7.48709 17.2152 7.59227 17.3529 7.67992 17.4994C8.04554 18.1042 8.10565 18.848 7.85522 19.5905Z" fill="#F6F3E3"/>
<path d="M19.5741 39.8504C19.6367 39.5937 18.5812 36.7237 19.6029 35.6206C20.0362 35.2825 20.4193 34.8668 20.7298 34.3897C21.8843 32.6142 21.7892 30.3553 20.502 29.018C20.4669 28.9817 20.4268 28.9504 20.3905 28.9141L21.0191 18.4636L27.216 0.000610352L26.2644 1.22396L17.4993 18.1856L18.9618 19.7746L18.4059 27.9799C17.8962 27.9198 17.3628 27.9649 16.8281 28.1214C15.7701 28.4345 14.8347 29.147 14.1936 30.1324C13.0391 31.9079 13.1343 34.1668 14.4215 35.5054C14.6031 35.6907 14.8072 35.8597 15.0263 36.0012C15.5209 36.3243 16.0781 36.5046 16.6629 36.5509C18.1016 37.1945 18.1942 39.188 18.367 39.5987C18.5423 40.0144 19.5065 40.1208 19.5741 39.8504ZM19.0582 18.2094C18.8203 17.9602 18.8278 17.5658 19.0758 17.3266C19.3237 17.09 19.7181 17.0962 19.9573 17.3454C20.1952 17.5921 20.1877 17.9878 19.9397 18.2257C19.6906 18.4648 19.2961 18.4573 19.0582 18.2094ZM17.7597 35.2575C17.0072 35.4803 16.2672 35.3877 15.6749 35.0045C15.5309 34.9106 15.3982 34.8017 15.2792 34.6765C14.3714 33.7348 14.3351 32.0945 15.1903 30.7823C15.6762 30.0322 16.3774 29.4951 17.165 29.2622C17.9175 29.0393 18.6563 29.1307 19.2485 29.5138C19.3925 29.609 19.5253 29.7192 19.6442 29.8444C20.552 30.786 20.5871 32.4251 19.7331 33.7398C19.246 34.4861 18.5448 35.0271 17.7597 35.2575Z" fill="#F6F3E3"/>
<path d="M37.78 6.8C35.9667 6.8 35.06 8.30667 35.06 11.32C35.06 14.3333 35.98 15.84 37.82 15.84C38.5133 15.84 39.08 15.5867 39.52 15.08C39.9733 14.5733 40.2867 13.92 40.46 13.12L40.82 13.16C40.62 14.1333 40.22 14.92 39.62 15.52C39.02 16.1067 38.26 16.4 37.34 16.4C35.9667 16.4 34.92 15.94 34.2 15.02C33.48 14.0867 33.12 12.8667 33.12 11.36C33.12 9.85334 33.48 8.65334 34.2 7.76C34.9333 6.85334 36.02 6.4 37.46 6.4C38.38 6.4 39.1267 6.6 39.7 7C40.2733 7.4 40.56 8.00667 40.56 8.82C40.56 9.22 40.4267 9.56 40.16 9.84C39.9067 10.1067 39.6 10.24 39.24 10.24C38.8933 10.24 38.6067 10.14 38.38 9.94C38.1667 9.72667 38.06 9.47334 38.06 9.18C38.06 8.87334 38.1467 8.62 38.32 8.42C38.4933 8.20667 38.7267 8.1 39.02 8.1C39.4733 8.1 39.74 8.27334 39.82 8.62C39.8333 8.74 39.8933 8.8 40 8.8C40.12 8.8 40.18 8.74 40.18 8.62C40.18 8.16667 39.9733 7.75334 39.56 7.38C39.16 6.99334 38.5667 6.8 37.78 6.8Z" fill="#F6F3E3"/>
<path d="M46.3997 15.7V16H41.9797V15.7H43.2997V2.5H41.8797V2.2H42.2997C43.353 2.2 44.293 2.11334 45.1197 1.94V8.54H45.2397C45.4664 7.9 45.8464 7.38667 46.3797 7C46.9264 6.6 47.533 6.4 48.1997 6.4C49.3597 6.4 50.153 6.74667 50.5797 7.44C51.0064 8.12 51.2197 9.14 51.2197 10.5V15.7H52.5397V16H48.1197V15.7H49.4397V10.78C49.4397 9.27334 49.3264 8.28 49.0997 7.8C48.993 7.58667 48.8264 7.39334 48.5997 7.22C48.3864 7.04667 48.0664 6.96 47.6397 6.96C47.213 6.96 46.8064 7.11334 46.4197 7.42C46.0464 7.72667 45.7664 8.14667 45.5797 8.68C45.2464 9.62667 45.0797 10.76 45.0797 12.08V15.7H46.3997Z" fill="#F6F3E3"/>
<path d="M56.8775 15.7H58.1975V16H53.7775V15.7H55.0975V7.1H53.6775V6.8H54.0975C55.1375 6.8 56.0642 6.71334 56.8775 6.54V15.7ZM55.0775 4.62C54.8642 4.39334 54.7575 4.11334 54.7575 3.78C54.7575 3.44667 54.8642 3.16667 55.0775 2.94C55.3042 2.71334 55.5842 2.6 55.9175 2.6C56.2508 2.6 56.5308 2.71334 56.7575 2.94C56.9842 3.16667 57.0975 3.44667 57.0975 3.78C57.0975 4.11334 56.9842 4.39334 56.7575 4.62C56.5308 4.83334 56.2508 4.94 55.9175 4.94C55.5842 4.94 55.3042 4.83334 55.0775 4.62Z" fill="#F6F3E3"/>
<path d="M63.9955 10.76L62.7155 10.98V15.7H64.0355V16H59.6155V15.7H60.9355V2.5H59.5155V2.2H59.9355C60.9755 2.2 61.9021 2.11334 62.7155 1.94V10.64C65.3555 10.2933 66.6755 9.44 66.6755 8.08C66.6755 7.68 66.5688 7.36 66.3555 7.12C66.1555 6.88 65.9021 6.76 65.5955 6.76C65.4621 6.76 65.3955 6.81334 65.3955 6.92C65.3955 7.02667 65.4555 7.09334 65.5755 7.12C65.9221 7.2 66.0955 7.46 66.0955 7.9C66.0955 8.18 65.9888 8.41334 65.7755 8.6C65.5755 8.77334 65.3221 8.86 65.0155 8.86C64.7221 8.86 64.4688 8.75333 64.2555 8.54C64.0555 8.31334 63.9555 8.02667 63.9555 7.68C63.9555 7.33334 64.0888 7.03334 64.3555 6.78C64.6355 6.52667 65.0021 6.4 65.4555 6.4C65.9088 6.4 66.2821 6.55334 66.5755 6.86C66.8688 7.15334 67.0155 7.56 67.0155 8.08C67.0155 9.18667 66.3221 9.98667 64.9355 10.48V10.52C65.9755 10.5733 66.6555 10.8467 66.9755 11.34C67.2955 11.8333 67.4555 12.64 67.4555 13.76V14.52C67.4555 15.0267 67.4955 15.3933 67.5755 15.62C67.6688 15.8333 67.8355 15.94 68.0755 15.94C68.1688 15.94 68.2888 15.92 68.4355 15.88L68.4755 16.12C68.1288 16.2133 67.7688 16.26 67.3955 16.26C66.2488 16.26 65.6755 15.6 65.6755 14.28V13.2C65.6755 11.5733 65.1555 10.76 64.1155 10.76H63.9955Z" fill="#F6F3E3"/>
<path d="M37.78 26.8C35.9667 26.8 35.06 28.3067 35.06 31.32C35.06 34.3333 35.98 35.84 37.82 35.84C38.5133 35.84 39.08 35.5867 39.52 35.08C39.9733 34.5733 40.2867 33.92 40.46 33.12L40.82 33.16C40.62 34.1333 40.22 34.92 39.62 35.52C39.02 36.1067 38.26 36.4 37.34 36.4C35.9667 36.4 34.92 35.94 34.2 35.02C33.48 34.0867 33.12 32.8667 33.12 31.36C33.12 29.8533 33.48 28.6533 34.2 27.76C34.9333 26.8533 36.02 26.4 37.46 26.4C38.38 26.4 39.1267 26.6 39.7 27C40.2733 27.4 40.56 28.0067 40.56 28.82C40.56 29.22 40.4267 29.56 40.16 29.84C39.9067 30.1067 39.6 30.24 39.24 30.24C38.8933 30.24 38.6067 30.14 38.38 29.94C38.1667 29.7267 38.06 29.4733 38.06 29.18C38.06 28.8733 38.1467 28.62 38.32 28.42C38.4933 28.2067 38.7267 28.1 39.02 28.1C39.4733 28.1 39.74 28.2733 39.82 28.62C39.8333 28.74 39.8933 28.8 40 28.8C40.12 28.8 40.18 28.74 40.18 28.62C40.18 28.1667 39.9733 27.7533 39.56 27.38C39.16 26.9933 38.5667 26.8 37.78 26.8Z" fill="#F6F3E3"/>
<path d="M46.3997 35.7V36H41.9797V35.7H43.2997V22.5H41.8797V22.2H42.2997C43.353 22.2 44.293 22.1133 45.1197 21.94V28.54H45.2397C45.4664 27.9 45.8464 27.3867 46.3797 27C46.9264 26.6 47.533 26.4 48.1997 26.4C49.3597 26.4 50.153 26.7467 50.5797 27.44C51.0064 28.12 51.2197 29.14 51.2197 30.5V35.7H52.5397V36H48.1197V35.7H49.4397V30.78C49.4397 29.2733 49.3264 28.28 49.0997 27.8C48.993 27.5867 48.8264 27.3933 48.5997 27.22C48.3864 27.0467 48.0664 26.96 47.6397 26.96C47.213 26.96 46.8064 27.1133 46.4197 27.42C46.0464 27.7267 45.7664 28.1467 45.5797 28.68C45.2464 29.6267 45.0797 30.76 45.0797 32.08V35.7H46.3997Z" fill="#F6F3E3"/>
<path d="M56.8775 35.7H58.1975V36H53.7775V35.7H55.0975V27.1H53.6775V26.8H54.0975C55.1375 26.8 56.0642 26.7133 56.8775 26.54V35.7ZM55.0775 24.62C54.8642 24.3933 54.7575 24.1133 54.7575 23.78C54.7575 23.4467 54.8642 23.1667 55.0775 22.94C55.3042 22.7133 55.5842 22.6 55.9175 22.6C56.2508 22.6 56.5308 22.7133 56.7575 22.94C56.9842 23.1667 57.0975 23.4467 57.0975 23.78C57.0975 24.1133 56.9842 24.3933 56.7575 24.62C56.5308 24.8333 56.2508 24.94 55.9175 24.94C55.5842 24.94 55.3042 24.8333 55.0775 24.62Z" fill="#F6F3E3"/>
<path d="M63.9955 30.76L62.7155 30.98V35.7H64.0355V36H59.6155V35.7H60.9355V22.5H59.5155V22.2H59.9355C60.9755 22.2 61.9021 22.1133 62.7155 21.94V30.64C65.3555 30.2933 66.6755 29.44 66.6755 28.08C66.6755 27.68 66.5688 27.36 66.3555 27.12C66.1555 26.88 65.9021 26.76 65.5955 26.76C65.4621 26.76 65.3955 26.8133 65.3955 26.92C65.3955 27.0267 65.4555 27.0933 65.5755 27.12C65.9221 27.2 66.0955 27.46 66.0955 27.9C66.0955 28.18 65.9888 28.4133 65.7755 28.6C65.5755 28.7733 65.3221 28.86 65.0155 28.86C64.7221 28.86 64.4688 28.7533 64.2555 28.54C64.0555 28.3133 63.9555 28.0267 63.9555 27.68C63.9555 27.3333 64.0888 27.0333 64.3555 26.78C64.6355 26.5267 65.0021 26.4 65.4555 26.4C65.9088 26.4 66.2821 26.5533 66.5755 26.86C66.8688 27.1533 67.0155 27.56 67.0155 28.08C67.0155 29.1867 66.3221 29.9867 64.9355 30.48V30.52C65.9755 30.5733 66.6555 30.8467 66.9755 31.34C67.2955 31.8333 67.4555 32.64 67.4555 33.76V34.52C67.4555 35.0267 67.4955 35.3933 67.5755 35.62C67.6688 35.8333 67.8355 35.94 68.0755 35.94C68.1688 35.94 68.2888 35.92 68.4355 35.88L68.4755 36.12C68.1288 36.2133 67.7688 36.26 67.3955 36.26C66.2488 36.26 65.6755 35.6 65.6755 34.28V33.2C65.6755 31.5733 65.1555 30.76 64.1155 30.76H63.9955Z" fill="#F6F3E3"/>
</svg>
