<svg width="80" height="80" viewBox="0 0 80 80" fill="none" xmlns="http://www.w3.org/2000/svg">
<path d="M77.4949 41.6145C77.5169 41.0946 77.5756 40.582 77.5756 40.0497C77.5756 39.5797 77.5219 39.1219 77.5047 38.6547C77.6927 37.7501 78.1445 36.8275 78.5814 35.9706C79.0133 35.015 79.46 34.1606 79.5577 33.6747C79.9534 32.0734 79.0208 31.1103 77.9954 30.4854C77.2629 30.0338 76.494 29.7384 76.0131 29.4027C75.7397 28.486 75.4127 27.5864 75.0734 26.699C74.9756 25.7409 75.0686 24.6912 75.1514 23.7318C75.276 22.6736 75.4395 21.7094 75.3883 21.2113C74.9317 18.399 71.9633 18.6871 70.5718 18.3367C70.0128 17.5616 69.4465 16.7939 68.8363 16.0616C67.9183 14.3344 67.8378 11.6346 67.3423 10.8302C66.0876 8.23287 63.2971 9.56309 61.8862 9.65236C61.11 9.09209 60.3068 8.57217 59.4864 8.08026C58.1169 6.63757 57.072 4.27816 56.3909 3.57009C55.2608 2.37889 53.9155 2.68641 52.8587 3.14529C52.0848 3.48103 51.416 3.97524 50.8669 4.22318C49.9 3.93636 48.9262 3.67755 47.9325 3.46515C46.2041 2.59129 44.527 0.652928 43.6678 0.289171C42.2032 -0.378553 41.0435 0.216001 40.1916 1.00331C39.5741 1.62336 39.0991 2.31534 38.6611 2.72551C37.6713 2.76585 36.6862 2.82314 35.7195 2.93791C33.7788 2.71819 31.5123 1.34616 30.5749 1.32295C28.9599 1.12163 28.0421 2.02371 27.5222 3.14027C27.1302 3.91775 26.9022 4.72094 26.6128 5.2348C25.7047 5.58999 24.8283 5.98301 23.9605 6.4028C22.005 6.76049 19.4688 6.34782 18.5056 6.53471C16.8859 6.8253 16.4111 8.12019 16.2207 9.26038C16.0754 10.0951 16.1278 10.9399 16.0338 11.5343C15.2757 12.1775 14.5336 12.8367 13.8305 13.5372C12.1633 14.5296 9.55116 14.8372 8.8065 15.3866C6.34696 16.8817 7.8668 19.5267 8.08882 20.9341C7.5944 21.7615 7.13176 22.6038 6.69859 23.4741C6.10425 24.193 5.22663 24.7959 4.45877 25.361C3.61899 25.9957 2.81706 26.5328 2.49741 26.9137C1.36955 28.1281 1.78955 29.4428 2.36194 30.4655C2.79406 31.2125 3.30416 31.8326 3.58011 32.3525C3.37983 33.3106 3.24186 34.2871 3.11496 35.2696C2.3264 37.0847 0.670052 38.9643 0.250268 39.8565C-0.665187 42.532 2.02264 43.6988 3.08925 44.673C3.2151 45.6762 3.35182 46.687 3.5592 47.6708C3.46408 49.5969 2.30194 51.9109 2.36173 52.8289C2.26891 55.7071 5.30942 55.8781 6.61434 56.4568C7.03894 57.3282 7.49426 58.1729 7.98136 59.0029C8.26338 59.8964 8.29369 60.9582 8.34386 61.9176C8.41348 62.9672 8.42937 63.9362 8.56839 64.4074C8.97354 66.0161 10.3017 66.3776 11.4686 66.4628C12.3364 66.5118 13.136 66.4192 13.7279 66.4752C14.4186 67.1636 15.1486 67.8081 15.8883 68.4403C17.0076 70.0588 17.6105 72.5829 18.1732 73.3665C19.1447 74.653 20.4471 74.6823 21.5748 74.3917C22.4196 74.1402 23.1726 73.752 23.7523 73.6082C24.6276 74.0378 25.5149 74.4381 26.4218 74.8044C27.1871 75.3293 27.8718 76.1055 28.4822 76.8671C29.1717 77.6799 29.7894 78.3928 30.1946 78.6834C30.8487 79.1592 31.4968 79.3083 32.0913 79.2596C32.6968 79.1642 33.2508 78.8716 33.7441 78.5298C34.4533 78.0414 35.0305 77.4456 35.5261 77.1333C36.4918 77.2528 37.4658 77.3189 38.4506 77.3701C40.3304 77.9975 42.3491 79.5451 43.2767 79.8357C44.8414 80.3897 45.8742 79.4379 46.5843 78.5346C47.0972 77.856 47.4584 77.1308 47.8222 76.6669C48.806 76.462 49.7628 76.1982 50.7149 75.9201C52.6727 75.8808 55.0823 76.7329 56.0366 76.7011C57.6453 76.5889 58.3826 75.5072 58.7537 74.4063C59.0075 73.559 59.0882 72.7147 59.2832 72.1481C60.0937 71.6648 60.8944 71.1643 61.661 70.6224C62.5374 70.2365 63.5896 70.0684 64.5928 69.9754C65.6473 69.8339 66.5847 69.7168 67.0511 69.536C68.6013 68.9792 68.9161 67.6929 68.8624 66.4796C68.8429 65.6155 68.6623 64.7977 68.6818 64.2117C69.2897 63.4938 69.8585 62.7423 70.4102 61.978C70.7495 61.6924 71.1133 61.4238 71.5331 61.1942C71.9871 60.9015 72.478 60.645 72.9588 60.4107C73.9157 59.937 74.814 59.5467 75.1997 59.2341C77.3018 57.3152 75.4585 54.9938 74.985 53.6364C75.3389 52.7283 75.6807 51.8154 75.9688 50.8782C76.9209 49.184 79.113 47.6631 79.4989 46.8112C80.9567 44.3412 78.3763 42.7471 77.4949 41.6145ZM40.1745 73.3251C21.828 73.3251 6.89908 58.3977 6.89908 40.0497C6.89908 21.7044 21.828 6.77533 40.1745 6.77533C58.5198 6.77533 73.4476 21.7044 73.4476 40.0497C73.4476 58.3975 58.5225 73.3251 40.1745 73.3251Z" fill="#F6F3E3"/>
<path d="M40.4015 8.57788C23.0704 8.57788 8.97394 22.6733 8.97394 40.0019C8.97394 57.328 23.0704 71.4234 40.4015 71.4234C57.7266 71.4234 71.8243 57.3255 71.8243 40.0019C71.8243 22.6707 57.7241 8.57788 40.4015 8.57788ZM40.4015 69.4144C24.1823 69.4144 10.9865 56.2223 10.9865 40.0021C10.9865 23.7842 24.1823 10.5848 40.4015 10.5848C56.6182 10.5848 69.8102 23.7817 69.8102 40.0021C69.8104 56.2175 56.6182 69.4144 40.4015 69.4144Z" fill="#F6F3E3"/>
<path d="M37.3894 58.1432H46.8849L48.3312 24.7794H35.9441L37.3894 58.1432Z" fill="#F6F3E3"/>
<path d="M44.442 17H39.5599V23.9642H44.442V17Z" fill="#F6F3E3"/>
<path d="M23.8417 57.987H31.5923L32.7724 30.7462H22.6616L23.8417 57.987Z" fill="#F6F3E3"/>
<path d="M29.5985 24.396H25.6141V30.0805H29.5985V24.396Z" fill="#F6F3E3"/>
<path d="M52.0596 58.2558H59.8079L60.9879 31.0137H50.8772L52.0596 58.2558Z" fill="#F6F3E3"/>
<path d="M57.8173 24.6693H53.8295V30.3538H57.8173V24.6693Z" fill="#F6F3E3"/>
</svg>
