<svg width="80" height="80" viewBox="0 0 80 80" fill="none" xmlns="http://www.w3.org/2000/svg">
<path d="M49.5968 18.7992L48.7127 19.5806C48.7127 19.5806 44.1973 28.2733 40.884 34.7446C41.6128 36.2072 42.269 37.5295 42.7799 38.5763L49.5968 18.7992Z" fill="#F6F3E3"/>
<path d="M37.4405 41.594C34.6531 46.9985 28.7779 49.2625 28.3521 49.4227C26.3812 49.876 24.6782 51.4863 24.012 53.6702C23.5462 55.1828 23.6339 56.7656 24.2449 58.1305C24.8785 59.5404 25.9905 60.5547 27.3804 60.978C27.8287 61.1182 28.2945 61.1858 28.7653 61.1908C31.2096 61.2109 33.4711 59.4027 34.2675 56.8082C34.2675 56.7981 34.2675 56.7856 34.2725 56.7756C34.2825 56.8006 34.285 56.8157 34.285 56.8157L39.6845 41.1032L39.692 41.0982L38.0741 40.2817C37.7135 41.0055 37.4831 41.4788 37.4405 41.594ZM32.6071 56.3023C32.0336 58.1705 30.4608 59.4678 28.7829 59.4553C28.4798 59.4553 28.1793 59.4027 27.8938 59.3176C26.9897 59.0421 26.261 58.3684 25.8352 57.4242C25.3944 56.4375 25.3393 55.2855 25.6774 54.1761C26.2509 52.3028 27.8237 51.008 29.5016 51.018C29.8047 51.023 30.1002 51.0706 30.3907 51.1583C31.2898 51.4338 32.0235 52.1074 32.4493 53.0516C32.8876 54.0358 32.9427 55.1878 32.6071 56.3023Z" fill="#F6F3E3"/>
<path d="M52.1938 49.6532C51.5627 49.3927 46.0406 46.971 43.4636 41.6141C43.1705 40.705 32.4017 19.3877 32.4017 19.3877L31.5452 18.6589L38.4323 39.6381L41.2372 41.0556L46.1432 56.5978C46.1683 56.7005 46.1908 56.8032 46.2159 56.9084C46.9447 59.5605 49.1861 61.4263 51.6529 61.4463C52.1012 61.4488 52.547 61.3937 52.9802 61.271C54.3802 60.8878 55.5247 59.9086 56.1908 58.5162C56.842 57.1663 56.9722 55.5835 56.5515 54.0584C55.9304 51.8019 54.2149 50.1215 52.1938 49.6532ZM40.0376 39.3677C39.5317 39.3652 39.1285 38.9519 39.1285 38.4461C39.1335 37.9377 39.5442 37.5345 40.0526 37.5395C40.5585 37.542 40.9667 37.9552 40.9617 38.4611C40.9567 38.9695 40.5435 39.3752 40.0376 39.3677ZM54.6306 57.7599C54.1798 58.6915 53.431 59.3426 52.5219 59.5931C52.2414 59.6657 51.9534 59.7033 51.6654 59.7008C49.9649 59.6882 48.4122 58.3509 47.8888 56.4426C47.5808 55.3231 47.6659 54.1711 48.1392 53.1994C48.59 52.2678 49.3388 51.6166 50.2529 51.3662C50.5259 51.291 50.8189 51.251 51.1019 51.2535C52.8049 51.271 54.3551 52.6083 54.8835 54.5167C55.1891 55.6386 55.0989 56.7882 54.6306 57.7599Z" fill="#F6F3E3"/>
<path d="M77.4956 41.6166C77.5232 41.0957 77.5783 40.5823 77.5783 40.0514C77.5783 39.5806 77.5257 39.1248 77.5056 38.6565C77.691 37.7524 78.1493 36.8283 78.585 35.9718C79.0158 35.0176 79.4666 34.1611 79.5642 33.6777C79.9574 32.0749 79.0258 31.1108 77.999 30.4872C77.2677 30.0339 76.4964 29.7383 76.018 29.4053C75.7476 28.4862 75.417 27.5871 75.0764 26.7005C74.9787 25.7414 75.0714 24.692 75.1515 23.7328C75.2792 22.676 75.442 21.7093 75.3919 21.2134C74.9311 18.401 71.966 18.689 70.5735 18.3409C70.0175 17.5645 69.4516 16.7982 68.8405 16.0669C67.9264 14.3389 67.8462 11.6367 67.3454 10.8328C66.0882 8.23572 63.3008 9.56554 61.8908 9.6557C61.1094 9.09722 60.308 8.57631 59.4891 8.08295C58.1192 6.64042 57.0724 4.2813 56.3937 3.57506C55.2642 2.38047 53.9194 2.68851 52.86 3.14932C52.0837 3.4849 51.4175 3.97827 50.8665 4.2262C49.9023 3.9382 48.9256 3.68275 47.9314 3.47238C46.2059 2.59585 44.5254 0.659959 43.6689 0.291814C42.2064 -0.376856 41.0443 0.219187 40.1928 1.00556C39.5718 1.62665 39.0984 2.32036 38.6627 2.72858C37.6734 2.76865 36.6867 2.82625 35.7175 2.94145C33.7766 2.72107 31.5101 1.34866 30.5735 1.32362C28.9582 1.12076 28.0416 2.02485 27.5182 3.1418C27.13 3.91816 26.9021 4.72207 26.6116 5.23547C25.71 5.59109 24.831 5.98177 23.9619 6.4C22.011 6.76064 19.4691 6.34741 18.5099 6.53274C16.8871 6.82825 16.4112 8.12051 16.2259 9.25751C16.0781 10.0965 16.1307 10.9404 16.0306 11.534C15.2717 12.1751 14.5329 12.8363 13.8292 13.535C12.1663 14.5317 9.55172 14.8348 8.80541 15.3882C6.34611 16.8834 7.87128 19.5255 8.08916 20.9329C7.59329 21.7594 7.13248 22.6034 6.69923 23.4724C6.10569 24.1961 5.22915 24.7947 4.46031 25.3607C3.61883 25.9943 2.81743 26.5327 2.49687 26.9109C1.3699 28.128 1.79064 29.4428 2.36163 30.4646C2.79489 31.2109 3.30579 31.832 3.58127 32.3529C3.38092 33.3096 3.24318 34.2863 3.11545 35.268C2.32657 37.0837 0.668672 38.9645 0.247935 39.8561C-0.666164 42.5307 2.02104 43.6978 3.09041 44.667C3.21563 45.6737 3.35337 46.6855 3.55873 47.6672C3.46607 49.5931 2.30153 51.9071 2.36163 52.8263C2.27148 55.7013 5.30929 55.8766 6.61408 56.4526C7.03732 57.3266 7.49562 58.1731 7.98397 59.0021C8.26697 59.8936 8.29702 60.9555 8.34461 61.9172C8.41473 62.9665 8.42975 63.9332 8.57 64.404C8.97571 66.0143 10.3005 66.375 11.4701 66.4601C12.3366 66.5127 13.1355 66.4175 13.7265 66.4726C14.4127 67.1588 15.1465 67.805 15.8853 68.4361C17.0048 70.0564 17.6083 72.5783 18.1693 73.3647C19.1435 74.6545 20.4458 74.6795 21.5728 74.389C22.4192 74.136 23.1731 73.7479 23.7491 73.6076C24.6231 74.0359 25.5096 74.4391 26.4187 74.8047C27.1826 75.3281 27.8663 76.1095 28.4773 76.8658C29.166 77.6772 29.7821 78.391 30.1878 78.684C30.8465 79.1573 31.4926 79.3076 32.0887 79.2575C32.6922 79.1623 33.2457 78.8718 33.739 78.5287C34.4478 78.0404 35.0288 77.4443 35.5222 77.1313C36.4864 77.254 37.4581 77.3166 38.4473 77.3692C40.3256 77.9953 42.3441 79.5455 43.2682 79.8335C44.8335 80.387 45.8653 79.4353 46.574 78.5287C47.0874 77.85 47.4505 77.1238 47.8137 76.6605C48.7954 76.4551 49.7496 76.1921 50.7012 75.9142C52.6597 75.8741 55.0689 76.7281 56.0281 76.6955C57.6359 76.5828 58.3722 75.5009 58.7428 74.4015C58.9983 73.555 59.0809 72.7085 59.2762 72.1451C60.0802 71.6617 60.8841 71.1583 61.6529 70.6199C62.5294 70.2342 63.5813 70.0664 64.583 69.9713C65.6399 69.8285 66.579 69.7108 67.0373 69.533C68.585 68.9745 68.9031 67.6898 68.8555 66.4751C68.8305 65.6086 68.6552 64.7922 68.6727 64.2087C69.2838 63.4924 69.8497 62.7361 70.4007 61.9723C70.7413 61.6868 71.1044 61.4188 71.5202 61.1909C71.9785 60.8979 72.4693 60.6374 72.9477 60.4045C73.9018 59.9337 74.8009 59.543 75.1891 59.23C77.2928 57.3066 75.4495 54.9875 74.9737 53.6302C75.3318 52.7236 75.6699 51.8095 75.9579 50.8728C76.9121 49.1774 79.1059 47.6572 79.4891 46.8057C80.9642 44.3439 78.3772 42.7461 77.4956 41.6166ZM40.1753 73.3271C21.8282 73.3271 6.89958 58.401 6.89958 40.0514C6.89958 21.7043 21.8257 6.77566 40.1753 6.77566C58.5249 6.77566 73.4536 21.7068 73.4536 40.0539C73.4536 58.401 58.5274 73.3271 40.1753 73.3271Z" fill="#F6F3E3"/>
<path d="M40.4007 8.57629C23.0704 8.57629 8.97571 22.6735 8.97571 40.0038C8.97571 57.3291 23.0704 71.4288 40.4007 71.4288C57.731 71.4288 71.8282 57.3291 71.8282 40.0038C71.8282 22.6735 57.731 8.57629 40.4007 8.57629ZM40.4007 69.4153C24.1823 69.4153 10.9867 56.2197 10.9867 40.0063C10.9867 23.7854 24.1848 10.5898 40.4007 10.5898C56.6216 10.5898 69.8147 23.7879 69.8147 40.0063C69.8147 56.2197 56.6191 69.4153 40.4007 69.4153Z" fill="#F6F3E3"/>
</svg>
